<svg width="276" height="276" viewBox="0 0 276 276" fill="none" xmlns="http://www.w3.org/2000/svg">
<rect width="276" height="276" fill="#F7F7F7"/>
<path d="M40.8245 184.473C40.3517 183.904 40.9069 182.806 41.6147 182.912C42.4682 183.039 42.758 183.736 42.2095 184.342C41.6587 184.951 41.2526 184.989 40.8245 184.473ZM219.25 184.421C219.075 183.962 219.879 183.115 220.49 183.115C221.478 183.115 221.598 182.507 221.598 177.51V172.686H222.343C223.088 172.686 223.088 172.686 223.094 174.486C223.11 179.053 223.348 179.639 225.198 179.639C227.037 179.639 227.16 179.416 227.309 175.815L227.433 172.81L228.24 172.732L229.047 172.655V175.727C229.047 179.608 229.136 179.763 231.368 179.763C234.194 179.763 234.677 179.077 234.729 174.983C234.758 172.686 234.758 172.686 235.503 172.686H236.248V175.784C236.248 179.842 236.088 179.718 241.144 179.596C246.849 179.459 247.414 179.005 245.619 176.003C244.612 174.319 242.262 173.476 241.289 174.449C240.843 174.894 239.932 174.465 240.02 173.85C240.457 170.822 245.681 172.662 247.549 176.502C248.88 179.238 249.181 179.553 250.588 179.68L251.643 179.776V177.092C251.643 172.801 252.465 171.953 255.884 172.717C258.823 173.374 260.303 177.809 258.425 180.332C257.548 181.511 249.731 181.582 248.17 180.426C247.389 179.848 247.389 179.848 246.226 180.406C244.311 181.324 238.311 181.415 236.706 180.549L235.55 179.926L234.421 180.527C232.696 181.446 230.484 181.383 229.115 180.376C228.136 179.656 228.079 179.644 227.763 180.089C227.089 181.038 225.329 181.325 223.647 180.761C223.132 180.589 223.088 180.649 223.084 181.534C223.075 183.737 219.904 186.125 219.25 184.421ZM257.257 179.023C258.679 177.078 256.672 173.928 254.01 173.928C253.381 173.928 253.381 173.928 253.381 176.811V179.695L255.146 179.595C256.519 179.517 256.988 179.39 257.257 179.023ZM31.8916 184.232C31.4532 183.704 31.9929 183.115 32.9152 183.115C33.5436 183.115 33.6297 183.205 33.6297 183.86C33.6297 184.709 32.4897 184.953 31.8916 184.232ZM35.217 183.966C35.0112 183.146 35.3707 182.796 36.2034 183.005C37.0056 183.206 37.1866 183.463 36.9812 184.11C36.7316 184.897 35.4237 184.79 35.217 183.966ZM91.8991 184.439C91.5631 184.103 91.7506 183.612 92.3692 183.207C93.1635 182.686 93.8852 183.196 93.6046 184.081C93.4412 184.595 92.2959 184.836 91.8991 184.439ZM95.2098 184.156C95.2098 183.241 95.8317 182.731 96.5483 183.057C97.6475 183.558 97.2125 184.605 95.9051 184.605C95.3998 184.605 95.2098 184.482 95.2098 184.156ZM227.185 184.356C226.742 183.64 227.304 182.804 228.12 182.967C229.169 183.177 229.481 183.509 229.141 184.053C228.831 184.548 227.437 184.764 227.185 184.356ZM77.403 183.704C75.5413 182.786 74.2371 177.386 75.738 176.81C76.9942 176.328 77.0834 176.49 77.0834 179.26C77.0834 182.351 77.3274 182.618 80.1445 182.618C82.3868 182.618 82.2803 182.99 82.356 174.9L82.422 167.844L83.1049 167.766L83.7877 167.687V173.27C83.7877 180.419 83.2122 179.639 88.4856 179.639C94.4726 179.639 94.344 179.773 94.4535 173.386C94.4666 172.616 95.3665 172.153 95.7438 172.722C95.8668 172.907 95.9439 174.232 95.9151 175.666C95.8405 179.39 96.2889 179.887 99.7208 179.887H100.424V173.913V167.938L101.355 168.015C102.139 168.08 102.284 168.181 102.269 168.651C102.259 168.958 102.231 171.892 102.207 175.169L102.162 181.129H99.7276C97.5203 181.129 97.2141 181.071 96.4514 180.508C95.3854 179.721 94.8829 179.726 94.1393 180.528C93.5453 181.168 93.5453 181.168 88.7931 181.086C83.52 180.995 83.7877 180.907 83.7877 182.736C83.7877 183.483 83.669 183.852 83.3949 183.958C82.5403 184.285 78.2111 184.102 77.403 183.704ZM19.5315 180.722C15.3358 178.622 16.7291 172.686 21.4177 172.686C24.2853 172.686 24.6907 173.19 24.6907 176.752C24.6907 179.926 24.3978 179.723 28.8828 179.657C34.1652 179.58 34.3652 179.414 34.3712 175.107C34.3771 170.892 35.7863 171.382 35.9058 175.64C36.0071 179.254 36.2285 179.639 38.1998 179.637C40.4859 179.636 40.8907 179.064 41.0288 175.643C41.1396 172.9 41.2773 172.45 42.0101 172.442C42.2414 172.438 42.3205 173.2 42.3205 175.434C42.3205 179.016 42.4244 179.265 44.0683 179.617C46.7647 180.196 46.5417 180.72 46.5417 173.803V167.72H47.2866H48.0315L48.0395 171.507C48.0459 174.53 48.1084 175.216 48.3499 174.907C51.5488 170.826 58.7558 172.469 58.3543 177.188C58.2409 178.521 58.2907 178.898 58.6163 179.168C59.1225 179.588 61.9236 179.885 61.9694 179.524C61.9873 179.382 62.0711 176.696 62.1556 173.555L62.3092 167.844H63.0542H63.7991V174.424V181.004L61.7362 181.077C59.6388 181.15 57.4736 180.494 57.4635 179.781C57.461 179.606 57.397 179.612 57.2772 179.799C56.2645 181.371 44.4542 181.812 42.5376 180.349L41.6772 179.692L40.7131 180.411C39.4151 181.378 37.6011 181.418 36.2606 180.509C35.7575 180.167 35.1825 179.888 34.9828 179.888C34.7831 179.888 34.3769 180.167 34.08 180.509C33.4304 181.158 25.4069 181.158 24.2871 180.934C23.0522 180.687 22.4953 178.695 22.4953 177.575C22.4953 176.866 22.7096 173.929 21.4236 173.929C17.9746 173.929 18.018 179.473 21.4688 179.711C22.1207 179.756 22.2174 179.851 22.1556 180.385C22.0645 181.169 20.7588 181.337 19.5315 180.722ZM54.4112 179.514C56.7142 179.182 57.7172 176.732 56.1636 175.233C54.5596 173.686 53.4466 173.589 50.9421 174.78C48.3002 176.036 47.9919 176.395 48.0818 178.107L48.1557 179.514L49.3972 179.648C50.7805 179.797 52.8333 179.742 54.4112 179.514ZM66.7521 180.736C66.835 180.52 66.9028 177.496 66.9028 174.016V167.688L67.7098 167.766L68.5168 167.844L68.583 174.486L68.6491 181.129H67.6253C66.7937 181.129 66.6297 181.055 66.7521 180.736ZM106.419 180.743C105.117 179.799 104.34 168.261 105.548 167.797C106.652 167.374 106.753 167.831 106.817 173.583C106.851 176.572 106.935 179.17 107.006 179.355C107.469 180.578 116.532 179.293 116.22 178.049C115.488 175.132 112.754 173.295 110.883 174.464C110.245 174.862 109.612 174.557 109.612 173.852C109.612 173.061 110.497 172.687 112.367 172.687C114.909 172.687 115.751 173.425 117.497 177.189C119.598 181.717 123.517 180.744 123.517 175.694C123.517 173.09 123.693 172.438 124.396 172.438C124.956 172.438 125.242 173.721 125.233 176.201C125.221 179.765 127.071 181.141 129.254 179.192L130.097 178.439L130.221 173.142L130.345 167.844L131.028 167.766C131.711 167.687 131.711 167.687 131.712 170.373C131.712 171.85 131.785 174.466 131.872 176.186L132.032 179.314L133.595 179.624C135.797 180.062 135.684 180.378 135.684 173.794C135.684 167.978 135.684 167.978 136.29 167.825C137.402 167.546 137.422 167.665 137.422 174.586V181.175L134.959 181.09C132.844 181.016 132.385 180.922 131.71 180.423C130.923 179.841 130.923 179.841 130.32 180.407C129.284 181.38 127.04 181.386 125.485 180.419L124.246 179.649L123.472 180.388C122.194 181.609 118.134 181.333 117.342 179.972C117.196 179.72 117.073 179.654 117.068 179.824C117.064 179.995 116.91 180.135 116.727 180.135C116.543 180.135 116.012 180.326 115.547 180.559C114.263 181.204 107.251 181.345 106.419 180.743ZM19.1354 171.065C18.7629 170.094 18.9628 169.501 19.7185 169.335C20.7944 169.099 20.986 169.325 20.6171 170.395C20.271 171.399 19.4125 171.787 19.1354 171.065ZM22.5037 170.389C22.5717 169.449 22.648 169.334 23.2008 169.334C23.9654 169.334 24.198 170.412 23.569 171.041C22.8173 171.793 22.4198 171.549 22.5037 170.389ZM242.45 170.808C242.006 169.642 242.122 169.458 243.302 169.458C244.522 169.458 244.629 169.891 243.664 170.926C243.029 171.608 242.743 171.58 242.45 170.808ZM121.799 170.638C121.442 169.696 123.115 168.855 123.643 169.71C123.729 169.849 123.925 169.885 124.079 169.79C124.233 169.694 124.106 169.972 123.797 170.406C123.111 171.37 122.12 171.485 121.799 170.638ZM125.441 170.856C124.492 170.124 125.133 169.249 126.389 169.564C126.904 169.694 127.01 169.851 126.947 170.398C126.857 171.172 126.136 171.392 125.441 170.856ZM233.02 170.373C233.02 169.489 233.606 169.053 234.254 169.453C234.85 169.822 234.446 171.065 233.703 171.151C233.075 171.223 233.02 171.161 233.02 170.373ZM236.414 171.031C236.119 170.736 236.238 169.775 236.609 169.468C237.492 168.735 238.507 170.08 237.688 170.898C237.364 171.223 236.677 171.294 236.414 171.031Z" fill="#B9277C"/>
<path d="M189.952 184.023C189.052 182.844 189.684 182.122 191.615 182.122C191.823 182.122 192.054 181.884 192.131 181.593C192.264 181.084 192.208 181.068 190.67 181.192C189.086 181.319 189.064 181.312 188.295 180.435C185.216 176.929 187.18 172.811 191.931 172.811C194.732 172.811 194.781 172.867 194.781 176.069V178.646L196.706 178.702C201.139 178.832 201.778 178.691 201.569 177.63C201.26 176.054 200.468 175.542 198.342 175.542H196.395V174.556C196.395 171.74 202.229 172.381 203.589 175.346C204.946 178.306 205.067 178.487 205.831 178.696C207.148 179.057 207.781 178.762 207.291 178.015C205.628 175.476 208.123 172.935 212.279 172.935H214.646L214.66 174.611C214.667 175.533 214.731 177.432 214.801 178.832L214.927 181.377H210.045C206.306 181.377 204.843 181.284 203.797 180.98C202.545 180.616 202.344 180.616 201.391 180.98C200.666 181.257 199.524 181.377 197.616 181.377H194.88L194.356 182.618C193.472 184.71 191.062 185.479 189.952 184.023ZM208.19 178.77C208.19 178.702 208.134 178.646 208.066 178.646C207.998 178.646 207.942 178.702 207.942 178.77C207.942 178.838 207.998 178.894 208.066 178.894C208.134 178.894 208.19 178.838 208.19 178.77ZM192.068 177.977C192.542 176.732 192.268 175.305 191.54 175.22C190.098 175.052 189.087 176.788 189.824 178.166C190.245 178.952 191.745 178.826 192.068 177.977ZM211.869 178.328C212.143 177.998 212.134 175.554 211.857 175.278C211.645 175.066 209.98 175.629 209.759 175.988C208.888 177.397 210.843 179.565 211.869 178.328ZM144.944 180.889C143.885 180.244 143.107 178.672 143.096 177.152C143.083 175.555 143.202 175.418 144.603 175.418H145.796L146.017 176.967C146.276 178.783 146.447 178.857 150.459 178.876C154 178.894 153.811 179.062 153.811 175.89C153.811 172.903 153.897 172.771 155.705 172.977L156.418 173.059L156.486 177.218L156.554 181.377L151.148 181.376C146.218 181.375 145.67 181.332 144.944 180.889ZM159.533 181.061C158.653 180.616 158.581 180.102 158.553 174.101L158.529 168.688L159.788 168.763L161.048 168.838L161.092 173.493C161.118 176.299 161.042 178.149 160.9 178.149C160.751 178.149 160.751 178.234 160.9 178.379C161.1 178.574 168.393 178.756 172.62 178.672L173.924 178.646L173.927 176.225C173.932 172.391 174.544 171.679 176.256 173.514L177.028 174.342L178.269 173.576C181.353 171.674 185.731 173.392 185.695 176.489C185.681 177.757 185.331 180.934 185.179 181.191C184.976 181.533 160.217 181.408 159.533 181.061ZM183.109 178.276C183.516 177.785 183.239 176.355 182.629 175.803C181.136 174.452 176.407 176.155 176.407 178.043C176.407 178.797 182.5 179.009 183.109 178.276ZM146.162 172.252C146.298 170.129 149.08 170.365 149.089 172.5L149.093 173.431H147.589H146.086L146.162 172.252ZM150.075 172.252C150.21 171.072 150.21 171.072 151.39 170.997L152.569 170.921V172.176V173.431H151.254H149.939L150.075 172.252ZM210.094 172.273C209.011 171.19 210.23 169.274 211.812 169.57C212.641 169.726 212.722 169.815 212.722 170.576C212.722 171.415 212.641 171.676 212.269 172.048C211.881 172.436 210.409 172.588 210.094 172.273Z" fill="#B9277C"/>
<path d="M101.355 157.118C100.979 157.059 100.661 156.878 100.648 156.716C100.481 154.625 100.772 144.47 101.004 144.322C103.327 142.844 109.778 144.998 111.079 147.686C113.8 153.307 108.676 158.277 101.355 157.118ZM107.374 155.092C112.105 152.555 110.324 146.225 104.746 145.748L102.736 145.576L102.574 147.647C102.364 150.353 102.365 155.176 102.576 155.387C102.96 155.772 106.515 155.553 107.374 155.092ZM114.701 157.128L113.956 157.021L114.016 150.886C114.048 147.512 114.076 144.612 114.078 144.441C114.08 144.206 115.042 144.131 118.053 144.131C121.804 144.131 122.026 144.157 122.026 144.607C122.026 145.819 121.898 145.869 118.787 145.869H115.849L115.772 146.8C115.729 147.312 115.734 148.206 115.782 148.786L115.869 149.841L118.055 149.779C120.448 149.712 120.599 149.767 120.599 150.711C120.599 151.612 120.615 151.608 118.083 151.386L115.801 151.185L115.872 153.307L115.943 155.429H118.798H121.654L121.732 156.236L121.81 157.043H119.718C118.567 157.043 117.136 157.086 116.536 157.139C115.937 157.192 115.111 157.187 114.701 157.128ZM134.023 157.102C133.376 156.678 133.478 144.132 134.131 143.969C135.458 143.636 135.449 143.588 135.377 150.643C135.306 157.607 135.245 157.9 134.023 157.102ZM142.718 157.098C142.558 156.996 141.587 154.847 140.56 152.322C139.533 149.797 138.409 147.06 138.063 146.241C137.258 144.337 137.249 143.882 138.012 143.882C138.953 143.882 139.333 144.611 142.08 151.676L143.227 154.628L143.796 153.414C144.109 152.746 144.993 150.58 145.761 148.6C147.43 144.295 147.668 143.882 148.477 143.882C149.327 143.882 149.296 144.814 148.382 146.747C147.992 147.571 146.917 150.141 145.994 152.458C143.976 157.519 143.791 157.781 142.718 157.098ZM150.918 156.913C150.865 156.774 150.851 153.869 150.888 150.457L150.954 144.254L154.66 144.185C157.458 144.133 158.415 144.194 158.567 144.433C158.878 144.924 158.812 145.866 158.465 145.883C158.295 145.89 156.954 145.884 155.486 145.868L152.816 145.84V150.731V155.621L155.692 155.494C158.779 155.357 158.984 155.434 158.689 156.607C158.534 157.222 151.148 157.513 150.918 156.913ZM161.631 157.128C161.146 157.027 161.138 156.875 161.259 150.639L161.383 144.254L163.99 144.256C169.087 144.259 171.856 148.27 168.294 150.489C166.441 151.643 166.444 151.714 168.44 153.817C169.862 155.316 170.627 156.712 170.24 157.099C169.666 157.673 168.801 157.017 167.272 154.848C165.371 152.151 165.047 151.847 163.873 151.656L162.949 151.506L163.035 154.336C163.128 157.412 163.116 157.437 161.631 157.128ZM166.215 150.219C169.345 148.6 167.949 145.643 164.046 145.623C163.185 145.618 162.435 149.693 163.163 150.42C163.467 150.725 165.496 150.591 166.215 150.219ZM172.916 157.182C172.65 154.334 172.945 143.992 173.295 143.922C174.831 143.613 174.804 143.478 174.667 150.637L174.543 157.166L173.736 157.244C173.292 157.287 172.923 157.258 172.916 157.182ZM178.206 157.126C177.888 156.998 177.722 144.386 178.034 144.074C178.588 143.52 180.676 145.808 184.318 150.958C186.942 154.668 186.692 154.844 186.834 149.185L186.959 144.254L187.706 144.181L188.454 144.107L188.375 150.388C188.28 157.984 187.947 159.002 186.423 156.357C186.129 155.846 185.136 154.478 184.217 153.317C183.299 152.156 182.016 150.421 181.368 149.461C179.433 146.596 179.499 146.507 179.582 151.872C179.663 157.165 179.533 157.662 178.206 157.126ZM195.226 157.125C189.569 156.438 189.433 145.905 195.061 144.365C198.341 143.467 204.141 145.953 201.305 147.041C200.972 147.169 200.642 147.039 199.25 146.234C197.447 145.192 194.263 146.085 193.177 147.938C190.872 151.872 194.177 156.59 198.51 155.551C200.781 155.006 201.138 152.507 198.986 152.221C196.855 151.939 197.281 150.985 199.583 150.884C201.763 150.79 201.982 150.975 201.98 152.913C201.976 156.618 200.194 157.729 195.226 157.125ZM211.044 157.123C210.563 157.027 210.55 156.854 210.619 151.446L210.69 145.868H208.57H206.451V144.999V144.13H211.541H216.631V144.999V145.868H214.521H212.41V151.429C212.41 156.802 212.267 157.81 211.583 157.256C211.56 157.238 211.318 157.178 211.044 157.123ZM226.006 157.022C225.767 156.883 224.94 155.82 224.167 154.659C221.379 150.469 220.356 150.376 220.356 154.311V157.043H219.417H218.478L218.507 151.89C218.523 149.057 218.554 146.124 218.576 145.372L218.617 144.007L221.308 144.146C224.473 144.31 225.326 144.687 226.376 146.385C227.388 148.021 226.545 150.227 224.671 150.845C223.621 151.192 223.62 151.491 224.666 152.715C227.642 156.195 228.318 158.369 226.006 157.022ZM223.241 150.111C226.222 148.757 225.6 146.161 222.195 145.748C220.534 145.546 220.349 145.737 220.242 147.752C220.088 150.657 220.801 151.218 223.241 150.111ZM232.771 157.088C229.845 156.29 229.295 154.987 229.295 148.857V144.131H230.164H231.033V148.737C231.033 154.75 231.409 155.553 234.221 155.553C237.117 155.553 237.872 153.755 237.694 147.288C237.611 144.293 237.723 143.898 238.66 143.886C239.653 143.874 239.588 153.626 238.586 154.967C237.233 156.779 234.84 157.652 232.771 157.088ZM243.682 157.069C241.923 156.499 241.471 156.047 241.466 154.852L241.462 154.027L242.796 154.79C244.628 155.838 246.169 155.851 247.192 154.827C248.572 153.448 247.97 152.24 245.451 151.331C242.674 150.328 241.82 149.475 241.858 147.743C241.933 144.259 246.752 142.605 248.841 145.347C249.759 146.553 249.136 146.841 247.201 146.105C245.71 145.539 244.805 145.618 243.979 146.388C242.763 147.52 243.569 149.069 245.642 149.586C248.32 150.254 249.89 151.871 249.561 153.623C249.067 156.26 246.26 157.904 243.682 157.069ZM254.746 157.129C254.264 157.028 254.253 156.877 254.376 151.758C254.531 145.269 254.738 145.869 252.345 145.869H250.37L250.447 145.062L250.525 144.255L255.554 144.194L260.582 144.133V145.001V145.869H258.471H256.361L256.327 147.297C256.309 148.082 256.281 150.624 256.265 152.946C256.234 157.557 256.274 157.447 254.746 157.129ZM124.207 150.653C124.281 143.972 124.325 143.72 125.36 143.98C125.999 144.14 125.999 144.14 125.999 149.847V155.553H128.855H131.71V156.298V157.043L127.924 157.043L124.137 157.043L124.207 150.653ZM153.733 151.401C153.117 151.308 153.045 151.205 153.112 150.507C153.193 149.68 157.071 149.092 157.531 149.837C158.404 151.249 156.885 151.875 153.733 151.401Z" fill="#171717"/>
<path d="M16 123.646V90L138.229 90.0001L260.458 90.0002V114.831V139.661L220.853 139.653C199.07 139.649 167.449 139.677 150.582 139.717C133.716 139.756 115.649 139.757 110.433 139.718L100.949 139.649L105.54 130.653C108.064 125.706 112.408 117.077 115.191 111.477L120.252 101.297L120.267 98.9999L120.283 96.7031H107.25H94.2167V99.1861C94.2167 101.593 94.2339 101.669 94.7754 101.678C95.0827 101.683 99.2449 101.682 104.025 101.677C108.805 101.672 112.862 101.762 113.042 101.879C113.321 102.06 110.341 108.424 109.362 109.739C109.26 109.876 106.579 115.128 103.404 121.41C91.3478 145.265 86.7168 154.342 85.6051 156.297L85.1108 157.166L50.5554 157.229L16.0001 157.292L16 123.646ZM76.1703 133.585C94.8992 128.146 93.9085 99.851 74.8566 96.0623C61.3702 93.3803 50.4228 103.195 51.4219 117.073C52.2916 129.153 64.1609 137.072 76.1703 133.585ZM68.2686 128.332C55.9312 126.439 54.6078 105.472 66.6024 101.932C75.8926 99.1903 82.9034 105.27 82.4776 115.7C82.1155 124.569 76.4678 129.59 68.2686 128.332ZM147.556 133.836C169.658 129.18 165.777 95.8352 143.133 95.8352C118.975 95.8352 116.629 130.427 140.526 134.286C141.777 134.487 145.636 134.241 147.556 133.836ZM140.774 128.251C127.906 126.125 127.214 104.493 139.924 101.67C148.865 99.6839 154.915 105.092 154.924 115.079C154.933 124.577 149.446 129.685 140.774 128.251ZM181.301 133.817C191.488 131.495 194.048 117.382 185.013 113.352C184.171 112.977 181.868 112.127 179.894 111.463C174.36 109.602 172.797 108.277 172.984 105.606C173.312 100.909 180.203 99.4149 184.924 103.016C186.354 104.107 186.737 103.994 188.233 102.045C190.215 99.4646 190.018 98.9392 186.461 97.3143C176.196 92.6255 165.683 98.4697 166.788 108.251C167.325 113 169.926 115.289 177.263 117.471C182.865 119.137 184.82 121.037 184.126 124.139C182.922 129.52 176.622 130.322 170.209 125.911C168.46 124.707 168.444 124.712 166.729 127.05C164.913 129.523 164.915 129.479 166.549 130.686C170.97 133.952 176.012 135.022 181.301 133.817ZM29.5124 133.799C29.8588 133.666 29.9052 132.743 29.9052 125.977V118.306H38.3476H46.79V115.699C46.79 113.782 46.7079 113.09 46.4797 113.086C46.309 113.082 42.5244 113.085 38.0695 113.091L29.9697 113.103L29.8228 112.369C29.4277 110.394 29.6488 101.421 30.0931 101.399C30.3312 101.387 34.1574 101.359 38.5959 101.337L46.6659 101.296L46.7364 98.6248L46.8069 95.9531L34.9418 96.0176L23.0767 96.0822L23.0888 104.649C23.0954 109.36 23.1234 117.88 23.1509 123.582L23.2009 133.949H26.1603C27.788 133.949 29.2964 133.882 29.5124 133.799ZM199.732 133.267C199.905 132.891 200.662 130.908 201.414 128.859C203.26 123.837 202.067 124.368 211.176 124.514L218.916 124.638L219.764 126.873C220.23 128.102 220.956 130.142 221.376 131.406C222.276 134.109 222.068 133.999 226.065 133.898C229.528 133.81 229.485 133.882 228.093 130.521C227.12 128.172 223.155 118.172 221.625 114.209C217.296 102.994 214.609 96.3373 214.345 96.1694C213.791 95.818 207.791 95.914 207.488 96.2792C207.342 96.4553 206.559 98.3269 205.749 100.438C204.939 102.55 203.521 106.121 202.598 108.374C200.994 112.288 200.503 113.523 198.646 118.307C195.662 125.991 194.719 128.404 193.815 130.665C192.394 134.216 192.208 133.95 196.107 133.95C199.419 133.95 199.419 133.95 199.732 133.267ZM205.156 119.627C204.767 119.525 204.785 119.37 205.363 117.855C205.711 116.943 206.94 113.57 208.094 110.361C211.222 101.666 210.656 101.831 213.199 108.871C214.013 111.124 215.124 114.158 215.666 115.614C216.209 117.069 216.752 118.605 216.873 119.028L217.094 119.796L211.338 119.767C208.172 119.751 205.391 119.688 205.156 119.627ZM244.823 117.81L244.83 101.794L250.355 101.727C256.806 101.649 256.429 101.872 256.307 98.2156L256.236 96.083L241.418 96.0189L226.6 95.9549L226.44 97.2605C226.352 97.9785 226.316 99.2365 226.36 100.056L226.439 101.546L232.144 101.67L237.848 101.794L237.776 117.619C237.69 136.125 237.21 133.98 241.419 133.895L244.815 133.826L244.823 117.81Z" fill="#B9277C"/>
</svg>
